<svg width="323" height="53" viewBox="0 0 323 53" fill="none" xmlns="http://www.w3.org/2000/svg">
<g filter="url(#filter0_d_1_2)">
<path d="M16.8068 35.4794C14.2926 35.4794 12.13 34.9467 10.3189 33.8814C8.51847 32.8054 7.13352 31.3139 6.16406 29.407C5.20526 27.5 4.72585 25.3054 4.72585 22.8232C4.72585 20.3089 5.21058 18.1037 6.18004 16.2074C7.16016 14.3004 8.55043 12.8143 10.3509 11.7489C12.1513 10.6729 14.2926 10.1349 16.7749 10.1349C18.9162 10.1349 20.7912 10.5238 22.3999 11.3015C24.0085 12.0792 25.2816 13.1712 26.2191 14.5774C27.1566 15.9837 27.6733 17.6349 27.7692 19.5312H21.3452C21.1641 18.3061 20.6847 17.3207 19.907 16.5749C19.1399 15.8185 18.1332 15.4403 16.8867 15.4403C15.832 15.4403 14.9105 15.728 14.1222 16.3033C13.3445 16.8679 12.7372 17.6935 12.3004 18.7802C11.8636 19.8668 11.6452 21.1825 11.6452 22.7273C11.6452 24.2933 11.8583 25.625 12.2844 26.7223C12.7212 27.8196 13.3338 28.6559 14.1222 29.2312C14.9105 29.8065 15.832 30.0941 16.8867 30.0941C17.6644 30.0941 18.3622 29.9343 18.9801 29.6147C19.6087 29.2951 20.1254 28.8317 20.5302 28.2244C20.9457 27.6065 21.2173 26.8661 21.3452 26.0032H27.7692C27.6626 27.8782 27.1513 29.5295 26.2351 30.957C25.3295 32.3739 24.0778 33.4819 22.4798 34.2809C20.8817 35.0799 18.9908 35.4794 16.8068 35.4794ZM32.1278 35V10.4545H38.7275V14.7372H38.9832C39.4307 13.2138 40.1817 12.0632 41.2364 11.2855C42.2911 10.4972 43.5056 10.103 44.8799 10.103C45.2208 10.103 45.5883 10.1243 45.9825 10.1669C46.3767 10.2095 46.7229 10.2681 47.0212 10.3427V16.3832C46.7016 16.2873 46.2595 16.2021 45.6949 16.1275C45.1302 16.0529 44.6135 16.0156 44.1448 16.0156C43.1434 16.0156 42.2485 16.234 41.4601 16.6708C40.6824 17.0969 40.0645 17.6935 39.6064 18.4606C39.159 19.2276 38.9353 20.1119 38.9353 21.1133V35H32.1278ZM50.5408 35V10.4545H57.3484V35H50.5408ZM53.9606 7.29048C52.9485 7.29048 52.0803 6.9549 51.3558 6.28373C50.642 5.60192 50.2852 4.78693 50.2852 3.83878C50.2852 2.90128 50.642 2.09695 51.3558 1.42578C52.0803 0.743962 52.9485 0.403052 53.9606 0.403052C54.9727 0.403052 55.8356 0.743962 56.5494 1.42578C57.2738 2.09695 57.636 2.90128 57.636 3.83878C57.636 4.78693 57.2738 5.60192 56.5494 6.28373C55.8356 6.9549 54.9727 7.29048 53.9606 7.29048ZM83.2242 17.4538L76.9919 17.8374C76.8854 17.3047 76.6563 16.8253 76.3048 16.3991C75.9532 15.9624 75.4898 15.6161 74.9145 15.3604C74.3499 15.0941 73.6734 14.9609 72.885 14.9609C71.8303 14.9609 70.9408 15.1847 70.2164 15.6321C69.4919 16.0689 69.1297 16.6548 69.1297 17.3899C69.1297 17.9759 69.3641 18.4712 69.8328 18.8761C70.3016 19.2809 71.1059 19.6058 72.2458 19.8509L76.6883 20.7457C79.0747 21.2358 80.8538 22.0241 82.0257 23.1108C83.1975 24.1974 83.7835 25.625 83.7835 27.3935C83.7835 29.0021 83.3094 30.4137 82.3612 31.6282C81.4237 32.8427 80.1347 33.7908 78.4941 34.4727C76.8641 35.1438 74.9838 35.4794 72.8531 35.4794C69.6038 35.4794 67.015 34.8029 65.0867 33.4499C63.1691 32.0863 62.0452 30.2326 61.7149 27.8888L68.4106 27.5373C68.613 28.5281 69.1031 29.2844 69.8808 29.8065C70.6585 30.3178 71.6546 30.5735 72.8691 30.5735C74.0622 30.5735 75.021 30.3445 75.7455 29.8864C76.4806 29.4176 76.8534 28.8157 76.8641 28.0806C76.8534 27.4627 76.5924 26.9567 76.0811 26.5625C75.5697 26.1577 74.7813 25.8487 73.716 25.6357L69.4653 24.7887C67.0683 24.3093 65.2838 23.4783 64.1119 22.2958C62.9507 21.1133 62.3701 19.6058 62.3701 17.7734C62.3701 16.1967 62.7963 14.8384 63.6485 13.6985C64.5115 12.5586 65.7206 11.6797 67.276 11.0618C68.8421 10.4439 70.6744 10.1349 72.7732 10.1349C75.8733 10.1349 78.3129 10.7901 80.0921 12.1005C81.8818 13.4109 82.9259 15.1953 83.2242 17.4538ZM101.126 10.4545V15.5682H86.3443V10.4545H101.126ZM89.7001 4.57386H96.5076V27.4574C96.5076 28.0859 96.6035 28.576 96.7953 28.9276C96.987 29.2685 97.2534 29.5082 97.5943 29.6467C97.9458 29.7852 98.3507 29.8544 98.8088 29.8544C99.1284 29.8544 99.448 29.8278 99.7676 29.7745C100.087 29.7106 100.332 29.6626 100.503 29.6307L101.573 34.6964C101.232 34.8029 100.753 34.9254 100.135 35.0639C99.5172 35.2131 98.7662 35.3036 97.8819 35.3356C96.2413 35.3995 94.8031 35.1811 93.5673 34.6804C92.3422 34.1797 91.3887 33.402 90.7069 32.3473C90.025 31.2926 89.6895 29.9609 89.7001 28.3523V4.57386ZM105.56 35V10.4545H112.368V35H105.56ZM108.98 7.29048C107.968 7.29048 107.1 6.9549 106.375 6.28373C105.662 5.60192 105.305 4.78693 105.305 3.83878C105.305 2.90128 105.662 2.09695 106.375 1.42578C107.1 0.743962 107.968 0.403052 108.98 0.403052C109.992 0.403052 110.855 0.743962 111.569 1.42578C112.293 2.09695 112.656 2.90128 112.656 3.83878C112.656 4.78693 112.293 5.60192 111.569 6.28373C110.855 6.9549 109.992 7.29048 108.98 7.29048ZM124.82 35.4634C123.254 35.4634 121.859 35.1918 120.634 34.6484C119.408 34.0945 118.439 33.2795 117.725 32.2035C117.022 31.1168 116.671 29.7638 116.671 28.1445C116.671 26.7809 116.921 25.6357 117.422 24.7088C117.922 23.782 118.604 23.0362 119.467 22.4716C120.33 21.907 121.31 21.4808 122.407 21.1932C123.515 20.9055 124.677 20.7031 125.891 20.5859C127.319 20.4368 128.469 20.2983 129.343 20.1705C130.216 20.032 130.85 19.8295 131.244 19.5632C131.639 19.2969 131.836 18.9027 131.836 18.3807V18.2848C131.836 17.2727 131.516 16.4897 130.877 15.9357C130.248 15.3817 129.353 15.1048 128.192 15.1048C126.967 15.1048 125.992 15.3764 125.268 15.9197C124.543 16.4524 124.064 17.1236 123.83 17.9332L117.533 17.4219C117.853 15.9304 118.482 14.6413 119.419 13.5547C120.357 12.4574 121.566 11.6158 123.047 11.0298C124.538 10.4332 126.264 10.1349 128.224 10.1349C129.588 10.1349 130.893 10.2947 132.139 10.6143C133.396 10.9339 134.51 11.4293 135.479 12.1005C136.459 12.7717 137.232 13.6346 137.796 14.6893C138.361 15.7333 138.643 16.9851 138.643 18.4446V35H132.187V31.5962H131.995C131.601 32.3633 131.074 33.0398 130.413 33.6257C129.753 34.201 128.959 34.6538 128.032 34.984C127.106 35.3036 126.035 35.4634 124.82 35.4634ZM126.77 30.7653C127.771 30.7653 128.656 30.5682 129.423 30.174C130.19 29.7692 130.792 29.2259 131.228 28.544C131.665 27.8622 131.884 27.0898 131.884 26.2269V23.6222C131.671 23.7607 131.378 23.8885 131.005 24.0057C130.642 24.1122 130.232 24.2134 129.774 24.3093C129.316 24.3945 128.858 24.4744 128.4 24.549C127.942 24.6129 127.526 24.6715 127.153 24.7248C126.354 24.842 125.657 25.0284 125.06 25.2841C124.464 25.5398 124 25.886 123.67 26.3228C123.34 26.7489 123.174 27.2816 123.174 27.9208C123.174 28.8477 123.51 29.5561 124.181 30.0462C124.863 30.5256 125.726 30.7653 126.77 30.7653ZM150.732 20.8097V35H143.925V10.4545H150.413V14.7852H150.7C151.244 13.3576 152.154 12.2283 153.433 11.3974C154.711 10.5558 156.261 10.1349 158.083 10.1349C159.788 10.1349 161.274 10.5078 162.541 11.2536C163.809 11.9993 164.795 13.0646 165.498 14.4496C166.201 15.8239 166.552 17.4645 166.552 19.3714V35H159.745V20.5859C159.756 19.0838 159.372 17.9119 158.594 17.0703C157.817 16.218 156.746 15.7919 155.382 15.7919C154.466 15.7919 153.657 15.989 152.953 16.3832C152.261 16.7773 151.718 17.3526 151.323 18.109C150.94 18.8548 150.743 19.755 150.732 20.8097ZM183.008 35.4794C180.526 35.4794 178.379 34.9521 176.568 33.8974C174.768 32.832 173.377 31.3512 172.397 29.4549C171.417 27.5479 170.927 25.3374 170.927 22.8232C170.927 20.2876 171.417 18.0717 172.397 16.1754C173.377 14.2685 174.768 12.7876 176.568 11.733C178.379 10.6676 180.526 10.1349 183.008 10.1349C185.49 10.1349 187.632 10.6676 189.432 11.733C191.243 12.7876 192.639 14.2685 193.619 16.1754C194.599 18.0717 195.089 20.2876 195.089 22.8232C195.089 25.3374 194.599 27.5479 193.619 29.4549C192.639 31.3512 191.243 32.832 189.432 33.8974C187.632 34.9521 185.49 35.4794 183.008 35.4794ZM183.04 30.206C184.169 30.206 185.112 29.8864 185.868 29.2472C186.625 28.5973 187.195 27.7131 187.578 26.5945C187.972 25.4759 188.17 24.2028 188.17 22.7752C188.17 21.3477 187.972 20.0746 187.578 18.956C187.195 17.8374 186.625 16.9531 185.868 16.3033C185.112 15.6534 184.169 15.3285 183.04 15.3285C181.9 15.3285 180.941 15.6534 180.164 16.3033C179.396 16.9531 178.816 17.8374 178.422 18.956C178.038 20.0746 177.846 21.3477 177.846 22.7752C177.846 24.2028 178.038 25.4759 178.422 26.5945C178.816 27.7131 179.396 28.5973 180.164 29.2472C180.941 29.8864 181.9 30.206 183.04 30.206ZM220.13 35.5753C218.574 35.5753 217.163 35.2823 215.895 34.6964C214.627 34.0998 213.621 33.2422 212.875 32.1236C212.129 30.9943 211.756 29.6307 211.756 28.0327C211.756 26.6264 212.033 25.4865 212.587 24.6129C213.141 23.7287 213.882 23.0362 214.808 22.5355C215.735 22.0348 216.758 21.6619 217.877 21.4169C219.006 21.1612 220.14 20.9588 221.28 20.8097C222.772 20.6179 223.981 20.4741 224.908 20.3782C225.845 20.2717 226.527 20.0959 226.953 19.8509C227.39 19.6058 227.608 19.1797 227.608 18.5724V18.4446C227.608 16.8679 227.177 15.6428 226.314 14.7692C225.462 13.8956 224.167 13.4588 222.431 13.4588C220.631 13.4588 219.219 13.853 218.196 14.6413C217.173 15.4297 216.454 16.2713 216.039 17.1662L212.459 15.8878C213.099 14.3963 213.951 13.2351 215.016 12.4041C216.092 11.5625 217.264 10.9766 218.532 10.6463C219.81 10.3054 221.067 10.1349 222.303 10.1349C223.091 10.1349 223.997 10.2308 225.02 10.4226C226.053 10.6037 227.049 10.9819 228.008 11.5572C228.977 12.1325 229.782 13.0007 230.421 14.1619C231.06 15.3232 231.38 16.8786 231.38 18.8281V35H227.608V31.6761H227.417C227.161 32.2088 226.735 32.7788 226.138 33.386C225.542 33.9933 224.748 34.5099 223.757 34.9361C222.767 35.3622 221.557 35.5753 220.13 35.5753ZM220.705 32.1875C222.197 32.1875 223.454 31.8945 224.476 31.3086C225.51 30.7227 226.287 29.9663 226.809 29.0394C227.342 28.1126 227.608 27.1378 227.608 26.1151V22.6634C227.449 22.8551 227.097 23.0309 226.554 23.1907C226.021 23.3398 225.403 23.473 224.7 23.5902C224.008 23.6967 223.331 23.7926 222.671 23.8778C222.021 23.9524 221.493 24.0163 221.089 24.0696C220.108 24.1974 219.192 24.4052 218.34 24.6928C217.498 24.9698 216.817 25.3906 216.295 25.9553C215.783 26.5092 215.528 27.2656 215.528 28.2244C215.528 29.5348 216.012 30.5256 216.982 31.1967C217.962 31.8572 219.203 32.1875 220.705 32.1875ZM242.035 2.27273V35H238.263V2.27273H242.035ZM258.914 35.5114C256.698 35.5114 254.753 34.984 253.081 33.9293C251.419 32.8746 250.119 31.3991 249.182 29.5028C248.255 27.6065 247.791 25.3906 247.791 22.8551C247.791 20.2983 248.255 18.0664 249.182 16.1594C250.119 14.2525 251.419 12.7717 253.081 11.717C254.753 10.6623 256.698 10.1349 258.914 10.1349C261.129 10.1349 263.068 10.6623 264.73 11.717C266.403 12.7717 267.703 14.2525 268.629 16.1594C269.567 18.0664 270.036 20.2983 270.036 22.8551C270.036 25.3906 269.567 27.6065 268.629 29.5028C267.703 31.3991 266.403 32.8746 264.73 33.9293C263.068 34.984 261.129 35.5114 258.914 35.5114ZM258.914 32.1236C260.597 32.1236 261.982 31.6921 263.068 30.8292C264.155 29.9663 264.959 28.8317 265.481 27.4254C266.003 26.0192 266.264 24.4957 266.264 22.8551C266.264 21.2145 266.003 19.6857 265.481 18.2688C264.959 16.8519 264.155 15.7067 263.068 14.8331C261.982 13.9595 260.597 13.5227 258.914 13.5227C257.23 13.5227 255.845 13.9595 254.759 14.8331C253.672 15.7067 252.868 16.8519 252.346 18.2688C251.824 19.6857 251.563 21.2145 251.563 22.8551C251.563 24.4957 251.824 26.0192 252.346 27.4254C252.868 28.8317 253.672 29.9663 254.759 30.8292C255.845 31.6921 257.23 32.1236 258.914 32.1236ZM275.793 35V10.4545H279.564V35H275.793ZM277.71 6.36364C276.975 6.36364 276.341 6.11328 275.809 5.61257C275.286 5.11186 275.025 4.50994 275.025 3.80682C275.025 3.10369 275.286 2.50178 275.809 2.00106C276.341 1.50035 276.975 1.25 277.71 1.25C278.445 1.25 279.074 1.50035 279.596 2.00106C280.128 2.50178 280.395 3.10369 280.395 3.80682C280.395 4.50994 280.128 5.11186 279.596 5.61257C279.074 6.11328 278.445 6.36364 277.71 6.36364ZM296.379 44.7159C294.557 44.7159 292.991 44.4815 291.681 44.0128C290.37 43.5547 289.278 42.9474 288.405 42.1911C287.542 41.4453 286.855 40.6463 286.343 39.794L289.348 37.6847C289.689 38.1321 290.12 38.6435 290.642 39.2188C291.164 39.8047 291.878 40.3107 292.783 40.7369C293.7 41.1737 294.898 41.392 296.379 41.392C298.36 41.392 299.996 40.9126 301.285 39.9538C302.574 38.995 303.218 37.4929 303.218 35.4474V30.4616H302.899C302.622 30.9091 302.228 31.4631 301.716 32.1236C301.216 32.7734 300.491 33.354 299.543 33.8654C298.605 34.3661 297.338 34.6165 295.74 34.6165C293.758 34.6165 291.979 34.1477 290.402 33.2102C288.836 32.2727 287.595 30.9091 286.679 29.1193C285.773 27.3295 285.321 25.1562 285.321 22.5994C285.321 20.0852 285.763 17.896 286.647 16.0316C287.531 14.1566 288.762 12.7077 290.338 11.685C291.915 10.6516 293.737 10.1349 295.804 10.1349C297.402 10.1349 298.669 10.4013 299.607 10.9339C300.555 11.456 301.279 12.0526 301.78 12.7237C302.292 13.3842 302.686 13.9276 302.963 14.3537H303.346V10.4545H306.99V35.7031C306.99 37.8125 306.51 39.5277 305.551 40.8487C304.603 42.1804 303.325 43.1552 301.716 43.7731C300.118 44.4016 298.339 44.7159 296.379 44.7159ZM296.251 31.2287C297.764 31.2287 299.042 30.8825 300.086 30.19C301.13 29.4975 301.924 28.5014 302.467 27.2017C303.011 25.902 303.282 24.3466 303.282 22.5355C303.282 20.767 303.016 19.2063 302.483 17.8533C301.951 16.5004 301.162 15.4403 300.118 14.6733C299.074 13.9062 297.785 13.5227 296.251 13.5227C294.653 13.5227 293.321 13.9276 292.256 14.7372C291.201 15.5469 290.408 16.6335 289.875 17.9972C289.353 19.3608 289.092 20.8736 289.092 22.5355C289.092 24.2401 289.358 25.7475 289.891 27.0579C290.434 28.3576 291.233 29.3803 292.288 30.1261C293.353 30.8612 294.674 31.2287 296.251 31.2287ZM313.893 35V10.4545H317.664V35H313.893ZM315.811 6.36364C315.076 6.36364 314.442 6.11328 313.909 5.61257C313.387 5.11186 313.126 4.50994 313.126 3.80682C313.126 3.10369 313.387 2.50178 313.909 2.00106C314.442 1.50035 315.076 1.25 315.811 1.25C316.546 1.25 317.174 1.50035 317.696 2.00106C318.229 2.50178 318.495 3.10369 318.495 3.80682C318.495 4.50994 318.229 5.11186 317.696 5.61257C317.174 6.11328 316.546 6.36364 315.811 6.36364Z" fill="white"/>
</g>
<defs>
<filter id="filter0_d_1_2" x="0.725861" y="0.403046" width="321.77" height="52.3129" filterUnits="userSpaceOnUse" color-interpolation-filters="sRGB">
<feFlood flood-opacity="0" result="BackgroundImageFix"/>
<feColorMatrix in="SourceAlpha" type="matrix" values="0 0 0 0 0 0 0 0 0 0 0 0 0 0 0 0 0 0 127 0" result="hardAlpha"/>
<feOffset dy="4"/>
<feGaussianBlur stdDeviation="2"/>
<feComposite in2="hardAlpha" operator="out"/>
<feColorMatrix type="matrix" values="0 0 0 0 0 0 0 0 0 0 0 0 0 0 0 0 0 0 0.25 0"/>
<feBlend mode="normal" in2="BackgroundImageFix" result="effect1_dropShadow_1_2"/>
<feBlend mode="normal" in="SourceGraphic" in2="effect1_dropShadow_1_2" result="shape"/>
</filter>
</defs>
</svg>
