<?xml version="1.0" standalone="no"?>
<!DOCTYPE svg PUBLIC "-//W3C//DTD SVG 20010904//EN"
 "http://www.w3.org/TR/2001/REC-SVG-20010904/DTD/svg10.dtd">
<svg version="1.0" xmlns="http://www.w3.org/2000/svg"
 width="496.000000pt" height="496.000000pt" viewBox="0 0 496.000000 496.000000"
 preserveAspectRatio="xMidYMid meet">

<g transform="translate(0.000000,496.000000) scale(0.100000,-0.100000)"
fill="#000000" stroke="none">
<path d="M0 2480 l0 -2480 2480 0 2480 0 0 2480 0 2480 -2480 0 -2480 0 0
-2480z m2868 1891 c59 -30 112 -94 112 -135 0 -31 -8 -41 -75 -96 -94 -77
-126 -128 -133 -217 l-5 -66 -18 34 c-28 52 -24 132 8 199 47 97 28 213 -43
269 -18 14 -22 22 -13 25 8 2 21 7 29 10 26 9 98 -3 138 -23z m258 -47 c70
-29 202 -123 257 -185 59 -65 106 -145 138 -236 29 -82 37 -264 15 -357 -59
-249 -259 -445 -513 -504 l-78 -18 66 -12 c142 -26 273 -5 414 63 195 95 328
273 366 489 6 36 14 66 18 66 4 0 32 -30 62 -66 241 -291 406 -664 460 -1039
17 -120 12 -366 -10 -495 -36 -211 -126 -439 -243 -615 l-53 -80 -7 185 c-7
177 -19 273 -31 240 -2 -8 -15 -55 -27 -105 -62 -248 -210 -511 -391 -695 -78
-79 -239 -213 -247 -205 -2 2 19 42 47 88 77 127 155 316 182 436 5 25 12 55
15 66 4 11 -20 -19 -52 -67 -254 -375 -648 -626 -1079 -688 -132 -18 -139 -15
-55 31 157 85 244 151 383 290 75 75 137 141 137 147 0 5 -51 -8 -112 -29
-124 -41 -305 -82 -337 -77 -16 2 -7 13 47 54 174 131 304 345 348 571 14 77
19 249 7 317 -6 38 -6 37 -30 -45 -125 -439 -516 -723 -958 -696 -114 7 -269
49 -368 99 -56 28 -59 31 -43 44 10 7 38 16 62 20 24 3 44 8 44 10 0 2 -20 24
-43 49 -79 81 -127 204 -127 319 1 113 52 200 145 248 50 26 137 28 182 4 45
-23 51 -55 25 -132 -17 -50 -19 -69 -11 -98 13 -49 70 -101 136 -126 78 -29
107 -27 136 13 30 39 70 118 87 172 11 34 14 37 21 20 4 -11 8 -54 9 -95 l1
-75 47 51 c27 28 61 79 78 112 24 51 33 62 54 62 38 0 108 -36 142 -72 l31
-33 -8 45 c-12 72 -64 229 -102 305 -58 116 -123 205 -218 300 -185 184 -406
292 -669 325 -145 19 -388 -2 -408 -34 -36 -56 -93 -126 -104 -126 -19 0 -27
41 -22 101 3 27 2 49 -1 48 -3 0 -19 -19 -36 -41 -45 -62 -55 -60 -55 11 l0
61 -45 21 c-56 26 -118 95 -134 148 -8 27 -21 46 -39 55 -51 26 -110 93 -118
130 -8 45 2 98 28 151 44 87 102 127 220 149 178 34 265 83 418 231 132 128
173 158 303 221 135 65 279 94 510 101 278 9 481 -24 716 -116 58 -22 106 -39
107 -38 2 2 -2 22 -8 46 -23 91 26 199 119 262 26 17 61 44 77 58 34 31 76
115 76 154 0 32 -3 31 46 11z"/>
</g>
</svg>
